<?xml version="1.0" encoding="UTF-8"?>
<svg id="Layer_1" data-name="Layer 1" xmlns="http://www.w3.org/2000/svg" viewBox="0 0 163.05 185.64">
  <defs>
    <style>
      .cls-1 {
        fill: #fff6ef;
        stroke: #0a96a6;
        stroke-miterlimit: 10;
        stroke-width: .5px;
      }

      .cls-2 {
        fill: #0a96a6;
      }
    </style>
  </defs>
  <rect class="cls-1" x=".25" y=".25" width="162.55" height="185.14" rx="14.02" ry="14.02"/>
  <path class="cls-2" d="M101.07,35.08c-3.53-3.22-6.52-3.58-10.86-6.15-1.79-1.06-4.34-2.82-7.06-5.71h-2.36c-2.7,2.8-5.22,4.6-7,5.71-4.01,2.51-6.41,2.89-9.78,5.62-2.34,1.89-3.87,3.89-4.79,5.25-.05,15.83-.09,31.67-.14,47.5h13.67l-.04,13.75h31.74v-61.8c-.62-1.02-1.69-2.62-3.38-4.16ZM99.09,95.68c-7.29.02-14.57.04-21.86.06,0-2.82.01-5.63.02-8.45h13.52c0-14.11.01-28.22.02-42.32-.25-.36-.66-.89-1.26-1.42-1.43-1.28-2.59-1.37-4.06-2.33-.69-.45-1.61-1.19-2.49-2.45h-1.84c-.87,1.3-1.79,2.02-2.49,2.45-1.59.97-2.98.96-4.41,2.38-.44.44-.74.86-.92,1.15-.17,12.42-.33,24.84-.5,37.26l-8.46-.04c.03-13.76.06-27.51.09-41.27.53-.68,1.35-1.65,2.53-2.59,2.33-1.86,4.59-2.53,5.63-2.88,2.3-.76,5.51-2.27,9.39-5.52,3.69,2.97,6.95,4.59,9.39,5.52,1.6.62,3.53,1.2,5.63,2.88.8.64,1.49,1.33,2.07,2.03v55.56ZM77.28,82c.06-12.34.12-24.69.18-37.03.75-.55,1.39-.92,1.84-1.15.58-.3.87-.39,1.38-.69.37-.22.68-.44.93-.64.23-.18.42-.35.56-.49.31.28.81.69,1.49,1.13.44.29.67.39,1.15.69.39.24.95.62,1.61,1.15v36.99l-9.14.04Z"/>
  <g>
    <path class="cls-2" d="M50.84,124.91l-2.56,7.74h-3.28s8.4-24.6,8.4-24.6h3.79s8.4,24.6,8.4,24.6h-3.39s-2.63-7.74-2.63-7.74h-8.72ZM58.95,122.42l-2.44-7.08c-.55-1.61-.91-3.07-1.28-4.49h-.07c-.37,1.42-.73,2.96-1.24,4.45l-2.41,7.12h7.44Z"/>
    <path class="cls-2" d="M67.72,128.37c1.42.91,3.47,1.61,5.66,1.61,3.25,0,5.15-1.72,5.15-4.2,0-2.26-1.32-3.61-4.64-4.85-4.01-1.46-6.5-3.58-6.5-7.01,0-3.83,3.17-6.68,7.96-6.68,2.48,0,4.34.59,5.4,1.21l-.88,2.59c-.77-.48-2.41-1.17-4.64-1.17-3.36,0-4.64,2.01-4.64,3.68,0,2.3,1.5,3.43,4.89,4.75,4.16,1.6,6.24,3.61,6.24,7.22,0,3.8-2.77,7.12-8.58,7.12-2.37,0-4.96-.73-6.28-1.6l.84-2.67Z"/>
    <path class="cls-2" d="M91.09,132.64l-8.07-24.6h3.47s3.83,12.12,3.83,12.12c1.02,3.32,1.93,6.31,2.63,9.2h.07c.69-2.85,1.68-5.95,2.81-9.16l4.16-12.15h3.39s-8.8,24.6-8.8,24.6h-3.5Z"/>
    <path class="cls-2" d="M117.41,121.11h-9.52v8.87s10.66,0,10.66,0v2.67s-13.87,0-13.87,0v-24.6s13.32,0,13.32,0v2.67s-10.11,0-10.11,0v7.77h9.52s0,2.63,0,2.63Z"/>
  </g>
  <g>
    <path class="cls-2" d="M49.52,151.35l-4.81-14.68h2.07l2.29,7.23c.61,1.98,1.15,3.77,1.57,5.49h.04c.41-1.7,1-3.55,1.68-5.47l2.48-7.25h2.02l-5.25,14.68h-2.09Z"/>
    <path class="cls-2" d="M57.5,146.73l-1.52,4.62h-1.96l5.01-14.68h2.26l5.01,14.68h-2.03l-1.57-4.62h-5.2ZM62.33,145.25l-1.46-4.22c-.33-.96-.54-1.83-.76-2.68h-.04c-.22.85-.43,1.76-.74,2.66l-1.44,4.25h4.44Z"/>
    <path class="cls-2" d="M67.85,136.67v8.71c0,3.27,1.46,4.66,3.42,4.66,2.16,0,3.57-1.44,3.57-4.66v-8.71h1.92v8.58c0,4.51-2.37,6.34-5.55,6.34-3,0-5.27-1.7-5.27-6.27v-8.64h1.92Z"/>
    <path class="cls-2" d="M78.67,136.87c.96-.17,2.35-.3,3.64-.3,2.03,0,3.35.39,4.25,1.2.72.65,1.15,1.65,1.15,2.81,0,1.92-1.22,3.2-2.74,3.72v.07c1.11.39,1.79,1.44,2.13,2.96.48,2.05.83,3.46,1.13,4.03h-1.96c-.24-.44-.57-1.68-.96-3.5-.43-2.02-1.24-2.79-2.96-2.85h-1.79v6.36h-1.9v-14.48ZM80.57,143.55h1.94c2.02,0,3.31-1.11,3.31-2.79,0-1.89-1.37-2.72-3.38-2.72-.91,0-1.55.07-1.87.15v5.36Z"/>
    <path class="cls-2" d="M97.19,144.47h-5.68v5.29h6.36v1.59h-8.27v-14.68h7.95v1.59h-6.03v4.64h5.68v1.57Z"/>
    <path class="cls-2" d="M100.89,146.73l-1.52,4.62h-1.96l5.01-14.68h2.26l5.01,14.68h-2.02l-1.57-4.62h-5.2ZM105.73,145.25l-1.46-4.22c-.33-.96-.54-1.83-.76-2.68h-.04c-.22.85-.43,1.76-.74,2.66l-1.44,4.25h4.44Z"/>
    <path class="cls-2" d="M110.65,136.67h1.92v13.09h6.27v1.59h-8.19v-14.68Z"/>
  </g>
  <rect class="cls-2" x="47.06" y="158.49" width="69.43" height=".46" rx=".23" ry=".23"/>
</svg>