<?xml version="1.0" encoding="UTF-8"?>
<svg id="Layer_1" data-name="Layer 1" xmlns="http://www.w3.org/2000/svg" viewBox="0 0 199.25 96.43">
  <defs>
    <style>
      .cls-1 {
        fill: #44404d;
      }

      .cls-2 {
        fill: #f7618b;
      }

      .cls-3 {
        fill: #fff6ef;
        stroke: #44404d;
        stroke-miterlimit: 10;
        stroke-width: .25px;
      }
    </style>
  </defs>
  <rect class="cls-3" x=".12" y=".3" width="199" height="96"/>
  <g>
    <g>
      <path class="cls-1" d="M102.6,17.33v41.69h8.28v8.78h-18.36V17.33h10.08Z"/>
      <path class="cls-1" d="M136.08,71.83c0,3.5-1.04,6.23-3.13,8.17-2.09,1.94-5.03,2.92-8.82,2.92s-6.68-.97-8.82-2.92c-2.14-1.94-3.2-4.64-3.2-8.1v-1.8h9.58v1.22c0,1.06.22,1.88.65,2.48.43.6,1.01.9,1.73.9,1.63,0,2.45-1.18,2.45-3.53v-7.56h-.65c-1.58,3.26-3.84,4.9-6.77,4.9-1.97,0-3.65-.82-5.04-2.45-1.39-1.63-2.09-4.13-2.09-7.49v-27.5h9.58v26.35c0,.91.19,1.65.58,2.2.38.55.91.83,1.58.83.58,0,1.12-.22,1.62-.65.5-.43.9-1.01,1.19-1.73v-27h9.58v40.75Z"/>
      <path class="cls-1" d="M150.99,17.4c3.94,0,7.1,1.01,9.5,3.02,2.4,2.02,3.6,5.18,3.6,9.5v25.34c0,4.32-1.2,7.49-3.6,9.5-2.4,2.02-5.57,3.02-9.5,3.02h-12.67V17.4h12.67ZM148.47,59.02h2.45c.91,0,1.66-.25,2.23-.76.58-.5.86-1.45.86-2.84v-25.63c0-1.39-.29-2.34-.86-2.84-.58-.5-1.32-.76-2.23-.76h-2.45v32.83Z"/>
      <path class="cls-1" d="M176.33,70.97c0,4.08-.85,7.09-2.56,9.04-1.7,1.94-4.02,2.92-6.95,2.92-1.49,0-3.02-.24-4.61-.72l.07-8.14c.58.14,1.08.22,1.51.22.96,0,1.7-.25,2.23-.76.53-.5.79-1.31.79-2.41V31.01h9.5v39.96ZM166.25,22.66c0-1.68.47-2.9,1.4-3.67.94-.77,2.22-1.15,3.85-1.15s3.01.4,4,1.19c.98.79,1.48,2,1.48,3.64s-.48,2.92-1.44,3.71c-.96.79-2.28,1.19-3.96,1.19s-2.99-.4-3.92-1.19-1.4-2.03-1.4-3.71Z"/>
    </g>
    <g>
      <rect class="cls-3" x=".3" y=".12" width="75.42" height="96"/>
      <g>
        <path class="cls-2" d="M31.32,47.71c.2.06.41.09.6,0,.55-.25.59-1.28.6-1.81.1-3.97-.31-5.62.6-7.23.25-.44.5-.71.79-1.02,3.7-3.91,12.76-6.26,16.07-10.43,1.42-1.79,2.68-5.04,1.21-11.4l-6.99-4.38c-.22.12-.55.34-.84.71-.47.59-.57,1.21-.6,1.49.49,1.69,1.22,5.21-.6,8.15-.78,1.25-1.74,1.95-2.41,2.41-6.64,4.62-10.7,5.15-13.25,7.83-1.68,1.76-3.22,4.99-2.41,11.45.66.43,5.91,3.81,7.23,4.22Z"/>
        <path class="cls-2" d="M58.08,43.03c-2.45,1.13-4.43,2.04-6.28,4.01-.61.66-1.57,1.82-2.41,3.61v.93c-1.97-1.1-3.93-2.2-5.9-3.3,0-.64-.02-1.19-.02-1.58.43-1.34,1-2.27,1.4-2.83,3.98-5.62,11.73-4.22,16.07-10.43.18-.26.31-.47.39-.6-2.72-1.66-5.44-3.32-8.16-4.98-.03.05-.04.11-.07.17-.63,1.25-1.64,1.88-2.41,2.41-3.1,2.1-10.2,4.28-13.25,7.83-1.08,1.25-2.3,3.36-2.51,7.02,4.82,2.7,9.64,5.4,14.46,8.1v5.09c.66.43,5.91,3.81,7.23,4.22.2.06.41.09.6,0,.55-.25.59-1.27.6-1.81v-5.36s0-.01,0-.02c0-.01,0-.03,0-.05,0,0,0-.02,0-.03.17-.82.46-1.71.97-2.6,2.32-4.06,7.26-4.83,8.2-4.95-2.97-1.62-5.95-3.25-8.92-4.87Z"/>
        <path class="cls-2" d="M46.35,61.24c-6.64,4.62-10.7,5.15-13.25,7.83-1.57,1.65-3.01,4.57-2.54,10.21l-1.26-.63v1.21c1.17.67,2.33,1.33,3.5,2,1.68,1.05,3.87,2.37,4.88,2.79.02.01.04.02.06.03h0c.06.02.13.04.18.06.2.06.41.09.6,0,.55-.25.59-1.28.6-1.81.1-3.97-.31-5.62.6-7.23.25-.44.5-.71.79-1.02,3.62-3.82,12.35-6.16,15.83-10.16-2.7-1.66-5.41-3.31-8.11-4.97-.66.81-1.37,1.32-1.89,1.69Z"/>
        <path class="cls-2" d="M44.45,59.42c.1-.87.16-1.92.08-3.11-.07-1.23-.27-2.3-.48-3.17l-6.99-4.38c-.22.12-.55.34-.84.71-.47.59-.57,1.21-.6,1.49.22.7.56,2.03.59,3.56-.06-.03-.11-.06-.17-.09-.18.14-.37.28-.58.43-2.46,1.67-4.54,2.68-6.36,3.53-3.76-2.1-7.52-4.21-11.27-6.31-1.22.56-2.33,1.07-3.37,1.69-1,.6-2.01,1.29-2.91,2.32-1.86,2.15-2.15,4.73-2.41,6.99-.12,1.07-.21,2.6,0,4.46.3.41.61.79.92,1.14,5.7,3.24,11.4,6.47,17.1,9.71.16.03.32.03.47-.03.59-.27.6-1.44.6-1.81.02-1.6.3-5.94.6-7.23,1.08-4.64,10.6-4.64,15.62-9.91ZM22.2,62.7c-1.85,2.2-2.37,4.51-2.54,5.46-.33,1.78-.26,3.4-.12,4.52-.88-.45-1.76-.9-2.64-1.35.24-.28.49-.7.68-1.37v-5.36c.15-.79.43-1.73.98-2.69,1.87-3.32,5.39-4.32,6.35-4.57,1.09.53,2.18,1.07,3.27,1.6-1.11.3-3.81,1.19-5.97,3.76Z"/>
      </g>
    </g>
  </g>
</svg>