<?xml version="1.0" encoding="UTF-8"?>
<svg id="Layer_1" data-name="Layer 1" xmlns="http://www.w3.org/2000/svg" viewBox="0 0 707.04 778.65">
  <defs>
    <style>
      .cls-1 {
        fill: #fa0;
      }

      .cls-2 {
        fill: #29cc5e;
      }

      .cls-3 {
        fill: #ffd500;
      }

      .cls-4 {
        fill: #2c9fd9;
      }

      .cls-5 {
        fill: #d93f21;
      }

      .cls-6 {
        fill: #32bbff;
      }
    </style>
  </defs>
  <path class="cls-6" d="M78.81,5.68c.15.08.31.15.46.23-.15-.08-.31-.15-.46-.23Z"/>
  <path class="cls-6" d="M73.04,3.21c.08.03.16.06.24.09-.08-.03-.16-.06-.24-.09Z"/>
  <path class="cls-6" d="M165.62,54.37c6.42,3.6,12.77,7.15,19.05,10.66-6.28-3.51-12.62-7.07-19.05-10.66Z"/>
  <path class="cls-6" d="M184.67,65.03c6.28,3.51,12.48,6.98,18.6,10.42-6.13-3.43-12.33-6.9-18.6-10.42Z"/>
  <path class="cls-6" d="M221.43,85.62c5.98,3.35,11.89,6.66,17.73,9.92-5.84-3.27-11.74-6.57-17.73-9.92Z"/>
  <path class="cls-6" d="M538.19,262.88c-63.17-35.33-151.64-84.84-273.25-152.91,121.61,68.07,210.08,117.58,273.25,152.91h0Z"/>
  <path class="cls-6" d="M247.86,100.41c5.76,3.23,11.46,6.41,17.08,9.56-5.62-3.15-11.32-6.33-17.08-9.56Z"/>
  <path class="cls-6" d="M76.11,4.42s0,0,.01,0c0,0,0,0-.01,0Z"/>
  <path class="cls-6" d="M81.81,7.28c.16.09.31.18.46.27-.15-.09-.31-.18-.46-.27Z"/>
  <path class="cls-6" d="M70,2.21c.07.02.13.04.2.06-.07-.02-.13-.04-.2-.06Z"/>
  <path class="cls-6" d="M30.84,5.47c.05-.03.11-.05.17-.08-.06.03-.11.05-.17.08Z"/>
  <path class="cls-6" d="M28.91,6.44c.06-.03.13-.06.19-.1-.06.03-.13.06-.19.09C12.25,15.45,0,32.8,0,54.74v334.55h411.77L28.91,6.44Z"/>
  <path class="cls-6" d="M234.99,685.39c-22.8,12.76-46.68,26.13-71.68,40.13,25-14,48.88-27.37,71.68-40.13Z"/>
  <path class="cls-6" d="M163.3,725.52c-6.25,3.5-12.57,7.04-18.96,10.62,6.39-3.58,12.71-7.12,18.96-10.62Z"/>
  <path class="cls-6" d="M84.87,769.43s0,0,0,0c20.47-11.46,40.29-22.56,59.47-33.3-19.18,10.74-38.99,21.83-59.47,33.3,0,0,0,0,0,0Z"/>
  <path class="cls-6" d="M359.17,615.91c-4.66,2.61-9.39,5.25-14.18,7.93,4.79-2.68,9.51-5.32,14.18-7.93Z"/>
  <polygon class="cls-6" points="545.82 511.62 545.82 511.62 545.82 511.62 545.82 511.62"/>
  <path class="cls-6" d="M284.48,657.69c-5.3,2.97-10.67,5.97-16.1,9.01,5.43-3.04,10.8-6.04,16.1-9.01Z"/>
  <path class="cls-6" d="M412.21,586.26c-4.18,2.34-8.42,4.71-12.72,7.11,4.3-2.4,8.54-4.77,12.72-7.11Z"/>
  <path class="cls-6" d="M386.42,600.67c-4.42,2.47-8.9,4.98-13.44,7.51,4.54-2.54,9.02-5.04,13.44-7.51Z"/>
  <path class="cls-6" d="M79.27,772.73c-.15.08-.31.16-.47.23.16-.08.31-.15.47-.23Z"/>
  <path class="cls-6" d="M82.28,771.06c-.15.09-.31.18-.46.27.15-.09.31-.18.46-.27Z"/>
  <path class="cls-6" d="M70.21,776.39c-.08.02-.15.05-.23.07.08-.02.15-.04.23-.07Z"/>
  <path class="cls-6" d="M73.29,775.36c-.09.03-.17.07-.26.1.09-.03.17-.07.26-.1Z"/>
  <path class="cls-6" d="M76.13,774.22s-.02,0-.03.01c0,0,.02,0,.03-.01Z"/>
  <path class="cls-4" d="M411.77,389.3H0v334.55c0,21.94,12.25,39.29,28.91,48.3h0l382.86-382.85h0Z"/>
  <path class="cls-4" d="M30.97,773.18s-.06-.03-.1-.05c.03.02.06.03.1.05Z"/>
  <path class="cls-2" d="M82.28,7.55c.87.51,1.74,1.04,2.59,1.61-.86-.57-1.72-1.09-2.59-1.61Z"/>
  <path class="cls-2" d="M79.27,5.91c.85.43,1.7.89,2.54,1.37-.84-.48-1.69-.94-2.54-1.37Z"/>
  <path class="cls-2" d="M70,2.21C56.69-1.72,42.82-.25,31.01,5.39c1.99-.94,4.03-1.76,6.12-2.46,10.34-3.5,21.8-3.98,32.87-.71Z"/>
  <path class="cls-2" d="M76.12,4.43c.9.39,1.8.81,2.69,1.25-.89-.44-1.79-.86-2.69-1.25Z"/>
  <path class="cls-2" d="M70.2,2.27c.95.28,1.9.6,2.84.94-.94-.34-1.89-.65-2.84-.94Z"/>
  <path class="cls-2" d="M29.1,6.34c.58-.3,1.16-.6,1.74-.87-.59.28-1.17.57-1.74.87Z"/>
  <path class="cls-2" d="M73.28,3.3c.95.35,1.89.72,2.83,1.12-.94-.4-1.88-.77-2.83-1.12Z"/>
  <path class="cls-2" d="M37.13,2.93l380.51,380.51,120.55-120.55c-63.17-35.33-151.64-84.84-273.25-152.91-5.62-3.15-11.32-6.33-17.08-9.56-2.88-1.61-5.78-3.24-8.7-4.87-5.84-3.27-11.75-6.57-17.73-9.92s-12.04-6.74-18.16-10.17c-6.13-3.43-12.33-6.9-18.6-10.42-6.28-3.51-12.62-7.07-19.05-10.66-25.7-14.39-52.6-29.45-80.75-45.21-.86-.57-1.72-1.09-2.59-1.61-.15-.09-.31-.18-.46-.27-.84-.48-1.69-.94-2.54-1.37-.15-.08-.31-.15-.46-.23-.89-.44-1.79-.87-2.69-1.25,0,0,0,0-.01,0-.94-.4-1.88-.77-2.83-1.12-.08-.03-.16-.06-.24-.09-.94-.34-1.89-.65-2.84-.94-.07-.02-.13-.04-.2-.06-11.07-3.27-22.53-2.79-32.87.71Z"/>
  <path class="cls-2" d="M411.77,389.3h0l5.86-5.86L37.13,2.93c-2.09.71-4.13,1.52-6.12,2.46-.06.03-.11.05-.17.08-.59.28-1.17.57-1.74.87-.06.03-.13.06-.19.1l382.86,382.86Z"/>
  <rect class="cls-2" x="411.77" y="389.3" width="0" height="0"/>
  <path class="cls-5" d="M73.03,775.45c-.94.34-1.88.65-2.82.94.94-.28,1.88-.6,2.82-.94Z"/>
  <path class="cls-5" d="M84.87,769.43c-.86.57-1.72,1.11-2.59,1.63.87-.52,1.74-1.05,2.59-1.63Z"/>
  <path class="cls-5" d="M76.1,774.24c-.93.4-1.87.77-2.8,1.12.94-.35,1.87-.72,2.8-1.12Z"/>
  <path class="cls-5" d="M37.12,775.67l380.52-380.51h0L37.12,775.67c-2.1-.72-4.16-1.54-6.15-2.49,11.82,5.66,25.69,7.23,39.02,3.27-11.07,3.28-22.52,2.74-32.86-.78Z"/>
  <path class="cls-5" d="M28.91,772.15c.64.34,1.3.67,1.96.98-.66-.31-1.31-.64-1.96-.98h0Z"/>
  <path class="cls-5" d="M78.81,772.96c-.89.45-1.78.87-2.68,1.26.9-.39,1.79-.82,2.68-1.26Z"/>
  <path class="cls-5" d="M81.82,771.34c-.84.49-1.69.95-2.54,1.39.85-.44,1.7-.9,2.54-1.39Z"/>
  <path class="cls-5" d="M538.31,515.84h0l-120.68-120.68L37.12,775.67c10.34,3.53,21.79,4.06,32.86.78.08-.02.15-.04.23-.07.94-.28,1.88-.6,2.82-.94.09-.03.17-.07.26-.1.94-.35,1.87-.72,2.8-1.12,0,0,.02,0,.03-.01.9-.39,1.79-.82,2.68-1.26.16-.08.31-.15.47-.23.85-.44,1.7-.9,2.54-1.39.15-.09.31-.18.46-.27.87-.52,1.74-1.05,2.59-1.63,0,0,0,0,0,0,20.47-11.46,40.29-22.56,59.47-33.3,6.39-3.58,12.71-7.12,18.96-10.62,25-14,48.88-27.37,71.68-40.13,11.4-6.38,22.53-12.61,33.39-18.69,5.43-3.04,10.8-6.04,16.1-9.01,21.2-11.86,41.36-23.14,60.51-33.85,4.79-2.68,9.51-5.32,14.18-7.93,4.66-2.61,9.27-5.18,13.81-7.72s9.02-5.04,13.44-7.51c4.42-2.47,8.78-4.91,13.08-7.31,4.3-2.4,8.54-4.77,12.72-7.11,50.15-28.03,91.79-51.28,126.1-70.42,2.55-1.43,5.04-2.83,7.51-4.22h0c-2.47,1.38-4.96,2.78-7.51,4.21Z"/>
  <path class="cls-5" d="M417.63,395.16h0s0,0,0,0l-5.86-5.86L28.91,772.15c.64.34,1.3.67,1.96.98.03.02.06.03.1.05,2,.95,4.05,1.77,6.15,2.49l380.52-380.51Z"/>
  <rect class="cls-5" x="414.7" y="388.08" width="0" height="8.29" transform="translate(-155.88 408.12) rotate(-45)"/>
  <polygon class="cls-3" points="423.5 389.3 423.5 389.3 423.5 389.3 423.5 389.3"/>
  <path class="cls-3" d="M423.5,389.3h0s283.54,0,283.54,0h0c0-18.54-9.35-37.25-27.9-47.62,0,0-34.67-19.35-140.95-78.79h0c2.54,1.42,5.06,2.83,7.52,4.21l-122.21,122.21Z"/>
  <path class="cls-3" d="M545.7,267.09l-122.21,122.21h0s122.21-122.21,122.21-122.21c-2.46-1.38-4.97-2.78-7.52-4.21h0c2.54,1.42,5.06,2.83,7.52,4.21Z"/>
  <rect class="cls-3" x="423.5" y="389.3" width="0" height="0"/>
  <polygon class="cls-3" points="423.5 389.3 423.5 389.3 423.5 389.3 423.5 389.3"/>
  <rect class="cls-3" x="423.5" y="389.3" width="0" height="0"/>
  <path class="cls-3" d="M545.7,267.09c-2.46-1.38-4.97-2.78-7.52-4.2l-120.55,120.55,5.86,5.86,122.21-122.21Z"/>
  <polygon class="cls-3" points="417.64 383.43 423.5 389.3 423.5 389.3 417.63 383.43 411.77 389.3 411.77 389.3 417.64 383.43"/>
  <polygon class="cls-3" points="411.77 389.3 411.77 389.3 411.77 389.3 411.77 389.3 411.77 389.3 411.77 389.3 411.77 389.3"/>
  <polygon class="cls-3" points="423.5 389.3 423.5 389.3 423.5 389.3 423.5 389.3"/>
  <rect class="cls-3" x="477.97" y="370.17" width="0" height="170.66" transform="translate(-182.09 471.39) rotate(-45)"/>
  <rect class="cls-3" x="417.63" y="395.16" height="0"/>
  <rect class="cls-3" x="423.5" y="389.3" width="0" height="0"/>
  <polygon class="cls-3" points="423.5 389.3 417.64 383.43 411.77 389.3 423.5 389.3 423.5 389.3"/>
  <rect class="cls-3" x="414.7" y="388.08" height="8.29"/>
  <rect class="cls-3" x="411.77" y="389.3" width="11.72" height="0"/>
  <path class="cls-1" d="M706.93,392.77c.07-1.16.11-2.32.11-3.48h0c0,1.16-.04,2.32-.11,3.48Z"/>
  <path class="cls-1" d="M679.14,436.92s-34.02,18.95-133.32,74.7h0c99.3-55.75,133.32-74.7,133.32-74.7,15.06-8.43,24.06-22.36,26.91-37.23-2.85,14.87-11.85,28.8-26.91,37.23Z"/>
  <rect class="cls-1" x="545.82" y="511.62" height="0" transform="translate(-201.9 535.8) rotate(-45)"/>
  <path class="cls-1" d="M538.31,515.84c2.55-1.43,5.04-2.83,7.51-4.22h0c-2.47,1.38-4.96,2.79-7.51,4.22h0Z"/>
  <path class="cls-1" d="M423.5,389.3l122.32,122.33c99.3-55.75,133.32-74.7,133.32-74.7,15.07-8.43,24.07-22.36,26.91-37.23.44-2.29.73-4.6.88-6.91.07-1.16.11-2.32.11-3.48h-283.54Z"/>
  <polygon class="cls-1" points="423.5 389.3 545.82 511.62 545.82 511.62 423.5 389.3 423.5 389.3 423.5 389.3"/>
  <polygon class="cls-1" points="411.77 389.3 411.77 389.3 411.77 389.3 411.77 389.3"/>
  <rect class="cls-1" x="420.57" y="388.08" height="8.29"/>
  <path class="cls-1" d="M417.63,395.16l120.68,120.68c2.55-1.43,5.04-2.83,7.51-4.22l-122.32-122.33-5.86,5.86Z"/>
  <polygon class="cls-1" points="423.5 389.3 423.5 389.3 417.63 395.16 417.63 395.16 423.5 389.3 423.5 389.3"/>
  <polygon class="cls-1" points="411.77 389.3 411.77 389.3 417.63 395.16 423.5 389.3 411.77 389.3"/>
</svg>